<svg aria-hidden="true" style="position: absolute; width: 0; height: 0; overflow: hidden;" version="1.1" xmlns="http://www.w3.org/2000/svg" xmlns:xlink="http://www.w3.org/1999/xlink">
<defs>
<symbol id="icon-list-arrow" viewBox="0 0 32 32">
<path fill="#000" style="fill: var(--color1, #000)" d="M31.997 16c0 8.835-7.162 15.997-15.997 15.997s-16-7.162-16-15.998c0.002-8.835 7.163-15.997 16-15.997s15.997 7.162 15.997 15.997zM21.324 16c0-0.003 0-0.006 0-0.010 0-0.293-0.119-0.558-0.312-0.749l-6.918-6.918c-0.195-0.207-0.471-0.335-0.776-0.335-0.589 0-1.067 0.478-1.067 1.067 0 0.306 0.129 0.582 0.335 0.777l0.001 0.001 6.167 6.167-6.167 6.165c-0.193 0.193-0.312 0.46-0.312 0.754 0 0.589 0.478 1.067 1.067 1.067 0.295 0 0.561-0.119 0.754-0.312v0l6.917-6.915c0.193-0.193 0.312-0.459 0.312-0.753 0-0.002 0-0.004-0-0.006v0z"></path>
<path fill="#c7b299" style="fill: var(--color2, #c7b299)" d="M31.997 16c0 8.835-7.162 15.997-15.997 15.997s-16-7.162-16-15.998c0.002-8.835 7.163-15.997 16-15.997s15.997 7.162 15.997 15.997zM21.324 16c0-0.003 0-0.006 0-0.010 0-0.293-0.119-0.558-0.312-0.749l-6.918-6.918c-0.195-0.207-0.471-0.335-0.776-0.335-0.589 0-1.067 0.478-1.067 1.067 0 0.306 0.129 0.582 0.335 0.777l0.001 0.001 6.167 6.167-6.167 6.165c-0.193 0.193-0.312 0.46-0.312 0.754 0 0.589 0.478 1.067 1.067 1.067 0.295 0 0.561-0.119 0.754-0.312v0l6.917-6.915c0.193-0.193 0.312-0.459 0.312-0.753 0-0.002 0-0.004-0-0.006v0z"></path>
</symbol>
<symbol id="icon-arrow-right-slider" viewBox="0 0 32 32">
<path fill="#000" style="fill: var(--color1, #000)" d="M21.284 15.937c0 0.002 0 0.004 0 0.007 0 0.295-0.12 0.562-0.314 0.754l-6.941 6.938c-0.19 0.176-0.445 0.283-0.726 0.283-0.591 0-1.071-0.479-1.071-1.071 0-0.28 0.108-0.535 0.284-0.726l-0.001 0.001 6.188-6.188-6.189-6.189c-0.168-0.189-0.271-0.439-0.271-0.713 0-0.592 0.48-1.072 1.072-1.072 0.274 0 0.524 0.103 0.713 0.272l-0.001-0.001 6.943 6.943c0.194 0.193 0.314 0.46 0.314 0.755 0 0.002 0 0.004 0 0.006v-0zM31.996 16.015c0 8.823-7.153 15.978-15.978 15.978-8.823 0-15.977-7.155-15.977-15.978s7.153-15.975 15.977-15.975c8.825 0 15.978 7.152 15.978 15.978zM29.855 16.015c0-7.629-6.208-13.837-13.837-13.837-7.628 0-13.837 6.208-13.837 13.839 0 7.625 6.209 13.836 13.837 13.836 7.629 0 13.837-6.211 13.837-13.836z"></path>
<path fill="#c7b299" style="fill: var(--color2, #c7b299)" d="M21.284 15.937c0 0.002 0 0.004 0 0.007 0 0.295-0.12 0.562-0.314 0.754l-6.941 6.938c-0.19 0.176-0.445 0.283-0.726 0.283-0.591 0-1.071-0.479-1.071-1.071 0-0.28 0.108-0.535 0.284-0.726l-0.001 0.001 6.188-6.188-6.189-6.189c-0.168-0.189-0.271-0.439-0.271-0.713 0-0.592 0.48-1.072 1.072-1.072 0.274 0 0.524 0.103 0.713 0.272l-0.001-0.001 6.943 6.943c0.194 0.193 0.314 0.46 0.314 0.755 0 0.002 0 0.004 0 0.006v-0zM31.996 16.015c0 8.823-7.153 15.978-15.978 15.978-8.823 0-15.977-7.155-15.977-15.978s7.153-15.975 15.977-15.975c8.825 0 15.978 7.152 15.978 15.978zM29.855 16.015c0-7.629-6.208-13.837-13.837-13.837-7.628 0-13.837 6.208-13.837 13.839 0 7.625 6.209 13.836 13.837 13.836 7.629 0 13.837-6.211 13.837-13.836z"></path>
</symbol>
<symbol id="icon-arrow-left-slider" viewBox="0 0 32 32">
<path fill="#000" style="fill: var(--color1, #000)" d="M11.030 15.177l6.941-6.943c0.188-0.168 0.438-0.271 0.712-0.271 0.592 0 1.072 0.48 1.072 1.072 0 0.274-0.103 0.524-0.272 0.714l0.001-0.001-6.188 6.189 6.188 6.188c0.176 0.19 0.283 0.445 0.283 0.726 0 0.591-0.479 1.071-1.071 1.071-0.28 0-0.535-0.108-0.726-0.284l0.001 0.001-6.941-6.94c-0.194-0.192-0.314-0.459-0.314-0.754 0-0.002 0-0.005 0-0.007v0c0-0.276 0.102-0.55 0.314-0.761zM15.981 0.038c8.823 0 15.978 7.152 15.978 15.978 0 8.822-7.155 15.977-15.978 15.977s-15.977-7.155-15.977-15.978c0-8.823 7.153-15.975 15.977-15.975zM15.981 29.852c7.629 0 13.839-6.211 13.839-13.837 0-7.629-6.209-13.837-13.839-13.837-7.628 0-13.836 6.208-13.836 13.837 0 7.626 6.208 13.837 13.836 13.837z"></path>
<path fill="#d1d1d1" style="fill: var(--color3, #d1d1d1)" d="M11.030 15.177l6.941-6.943c0.188-0.168 0.438-0.271 0.712-0.271 0.592 0 1.072 0.48 1.072 1.072 0 0.274-0.103 0.524-0.272 0.714l0.001-0.001-6.188 6.189 6.188 6.188c0.176 0.19 0.283 0.445 0.283 0.726 0 0.591-0.479 1.071-1.071 1.071-0.28 0-0.535-0.108-0.726-0.284l0.001 0.001-6.941-6.94c-0.194-0.192-0.314-0.459-0.314-0.754 0-0.002 0-0.005 0-0.007v0c0-0.276 0.102-0.55 0.314-0.761zM15.981 0.038c8.823 0 15.978 7.152 15.978 15.978 0 8.822-7.155 15.977-15.978 15.977s-15.977-7.155-15.977-15.978c0-8.823 7.153-15.975 15.977-15.975zM15.981 29.852c7.629 0 13.839-6.211 13.839-13.837 0-7.629-6.209-13.837-13.839-13.837-7.628 0-13.836 6.208-13.836 13.837 0 7.626 6.208 13.837 13.836 13.837z"></path>
</symbol>
<symbol id="icon-dish" viewBox="0 0 39 32">
<path fill="#000" style="fill: var(--color1, #000)" d="M39.271 30.767c0 0 0 0 0 0.001 0 0.678-0.549 1.228-1.228 1.229h-36.815c-0.678-0.001-1.227-0.551-1.227-1.229 0-0 0-0 0-0.001v0c0-0.001 0-0.001 0-0.002 0-0.678 0.549-1.228 1.228-1.229h36.815c0.678 0.001 1.227 0.551 1.227 1.229 0 0.001 0 0.002 0 0.002v-0zM39.271 24.614v1.23c0 0 0 0.001 0 0.001 0 0.678-0.549 1.228-1.228 1.229h-36.815c-0.678-0.001-1.227-0.551-1.227-1.229 0-0 0-0.001 0-0.002v0-1.231c0-10.458 8.138-19.049 18.407-19.689-0.007-0.093 0-2.461 0-2.461h-2.453c-0.678-0.001-1.228-0.551-1.228-1.229 0-0 0-0.001 0-0.002v0c0-0 0-0.001 0-0.001 0-0.678 0.549-1.228 1.228-1.229h7.363c0.678 0.001 1.227 0.551 1.227 1.229 0 0 0 0.001 0 0.002v-0c0 0 0 0.001 0 0.001 0 0.678-0.549 1.228-1.227 1.229h-2.455v2.461c10.269 0.639 18.407 9.231 18.407 19.689zM36.817 24.614c0-9.515-7.691-17.228-17.18-17.228s-17.18 7.713-17.18 17.228z"></path>
<path fill="#c7b299" style="fill: var(--color2, #c7b299)" d="M39.271 30.767c0 0 0 0 0 0.001 0 0.678-0.549 1.228-1.228 1.229h-36.815c-0.678-0.001-1.227-0.551-1.227-1.229 0-0 0-0 0-0.001v0c0-0.001 0-0.001 0-0.002 0-0.678 0.549-1.228 1.228-1.229h36.815c0.678 0.001 1.227 0.551 1.227 1.229 0 0.001 0 0.002 0 0.002v-0zM39.271 24.614v1.23c0 0 0 0.001 0 0.001 0 0.678-0.549 1.228-1.228 1.229h-36.815c-0.678-0.001-1.227-0.551-1.227-1.229 0-0 0-0.001 0-0.002v0-1.231c0-10.458 8.138-19.049 18.407-19.689-0.007-0.093 0-2.461 0-2.461h-2.453c-0.678-0.001-1.228-0.551-1.228-1.229 0-0 0-0.001 0-0.002v0c0-0 0-0.001 0-0.001 0-0.678 0.549-1.228 1.228-1.229h7.363c0.678 0.001 1.227 0.551 1.227 1.229 0 0 0 0.001 0 0.002v-0c0 0 0 0.001 0 0.001 0 0.678-0.549 1.228-1.227 1.229h-2.455v2.461c10.269 0.639 18.407 9.231 18.407 19.689zM36.817 24.614c0-9.515-7.691-17.228-17.18-17.228s-17.18 7.713-17.18 17.228z"></path>
</symbol>
<symbol id="icon-heart" viewBox="0 0 32 32">
<path fill="#000" style="fill: var(--color1, #000)" d="M32 10c0 9.051-5.82 17.238-15.568 21.9-0.126 0.062-0.275 0.099-0.432 0.099s-0.306-0.036-0.438-0.101l0.006 0.003c-9.748-4.662-15.568-12.849-15.568-21.9 0-5.516 4.486-10 10-10 2.171 0 4.271 0.709 6 2.010 0.046-0.033 0.094-0.063 0.139-0.096 0.15-0.108 0.3-0.215 0.457-0.316 0.087-0.057 0.177-0.108 0.265-0.161 0.162-0.097 0.322-0.194 0.489-0.282 0.061-0.033 0.127-0.062 0.189-0.092 0.316-0.157 0.643-0.298 0.977-0.423 0.127-0.048 0.252-0.098 0.381-0.14 0.141-0.046 0.285-0.085 0.429-0.125 0.214-0.065 0.503-0.134 0.797-0.191l0.062-0.010c0.185-0.034 0.371-0.063 0.559-0.085 0.111-0.015 0.222-0.031 0.335-0.041 0.305-0.028 0.613-0.047 0.921-0.047 5.513 0 10 4.484 10 10zM30 10c0-4.412-3.589-8-8-8-0.26 0-0.518 0.015-0.771 0.039-0.116 0.012-0.229 0.031-0.342 0.048-0.133 0.020-0.267 0.037-0.399 0.061-0.146 0.029-0.288 0.065-0.431 0.102-0.146 0.034-0.242 0.060-0.338 0.087l0.051-0.013c-0.214 0.062-0.37 0.115-0.524 0.172l0.054-0.018c-0.075 0.027-0.149 0.053-0.222 0.082-0.165 0.065-0.327 0.137-0.487 0.213-0.319 0.151-0.584 0.298-0.838 0.46l0.031-0.018c-0.167 0.102-0.33 0.214-0.489 0.329-0.036 0.028-0.073 0.056-0.111 0.082-0.161 0.124-0.322 0.253-0.476 0.39-1.656 1.466-2.708 3.602-2.708 5.983 0 0.552-0.448 1-1 1s-1-0.448-1-1v0c0-2.527 0.949-4.831 2.502-6.594-1.258-0.877-2.818-1.402-4.501-1.406h-0.001c-4.411 0-8 3.588-8 8 0 8.129 5.225 15.533 14 19.889 8.775-4.356 14-11.76 14-19.889zM28 10c0 0.552-0.448 1-1 1s-1-0.448-1-1v0c0-2.207-1.794-4-4-4-0.552 0-1-0.448-1-1s0.448-1 1-1v0c3.309 0 6 2.691 6 6z"></path>
<path fill="#c7b299" style="fill: var(--color2, #c7b299)" d="M32 10c0 9.051-5.82 17.238-15.568 21.9-0.126 0.062-0.275 0.099-0.432 0.099s-0.306-0.036-0.438-0.101l0.006 0.003c-9.748-4.662-15.568-12.849-15.568-21.9 0-5.516 4.486-10 10-10 2.171 0 4.271 0.709 6 2.010 0.046-0.033 0.094-0.063 0.139-0.096 0.15-0.108 0.3-0.215 0.457-0.316 0.087-0.057 0.177-0.108 0.265-0.161 0.162-0.097 0.322-0.194 0.489-0.282 0.061-0.033 0.127-0.062 0.189-0.092 0.316-0.157 0.643-0.298 0.977-0.423 0.127-0.048 0.252-0.098 0.381-0.14 0.141-0.046 0.285-0.085 0.429-0.125 0.214-0.065 0.503-0.134 0.797-0.191l0.062-0.010c0.185-0.034 0.371-0.063 0.559-0.085 0.111-0.015 0.222-0.031 0.335-0.041 0.305-0.028 0.613-0.047 0.921-0.047 5.513 0 10 4.484 10 10zM30 10c0-4.412-3.589-8-8-8-0.26 0-0.518 0.015-0.771 0.039-0.116 0.012-0.229 0.031-0.342 0.048-0.133 0.020-0.267 0.037-0.399 0.061-0.146 0.029-0.288 0.065-0.431 0.102-0.146 0.034-0.242 0.060-0.338 0.087l0.051-0.013c-0.214 0.062-0.37 0.115-0.524 0.172l0.054-0.018c-0.075 0.027-0.149 0.053-0.222 0.082-0.165 0.065-0.327 0.137-0.487 0.213-0.319 0.151-0.584 0.298-0.838 0.46l0.031-0.018c-0.167 0.102-0.33 0.214-0.489 0.329-0.036 0.028-0.073 0.056-0.111 0.082-0.161 0.124-0.322 0.253-0.476 0.39-1.656 1.466-2.708 3.602-2.708 5.983 0 0.552-0.448 1-1 1s-1-0.448-1-1v0c0-2.527 0.949-4.831 2.502-6.594-1.258-0.877-2.818-1.402-4.501-1.406h-0.001c-4.411 0-8 3.588-8 8 0 8.129 5.225 15.533 14 19.889 8.775-4.356 14-11.76 14-19.889zM28 10c0 0.552-0.448 1-1 1s-1-0.448-1-1v0c0-2.207-1.794-4-4-4-0.552 0-1-0.448-1-1s0.448-1 1-1v0c3.309 0 6 2.691 6 6z"></path>
</symbol>
<symbol id="icon-chat" viewBox="0 0 32 32">
<path fill="#000" style="fill: var(--color1, #000)" d="M21.999 17.999c0 0.553-0.448 1-1 1h-9.998c-0.552 0-1-0.448-1-1s0.448-1 1-1v0h9.998c0.553 0 1 0.449 1 1zM23.998 12.001c0 0.551-0.447 0.999-1 0.999h-13.997c-0.552 0-1-0.448-1-1s0.448-1 1-1v0h13.997c0.553 0 1 0.448 1 1.001zM31.996 14c0 7.731-7.161 13.997-15.997 13.997-1.023 0-2.020-0.093-2.991-0.252l-7.007 4.252v-7.079c-3.655-2.566-5.999-6.499-5.999-10.917 0-7.731 7.164-13.998 15.998-13.998 8.836 0 15.997 6.267 15.997 13.998zM29.996 14c0-6.625-6.266-11.998-13.997-11.998s-13.997 5.372-13.997 11.998c0 4.065 2.365 7.652 5.974 9.823l-0.063 4.638 4.708-2.829c1.084 0.231 2.211 0.367 3.379 0.367 7.731 0 13.998-5.372 13.998-11.998z"></path>
<path fill="#c7b299" style="fill: var(--color2, #c7b299)" d="M21.999 17.999c0 0.553-0.448 1-1 1h-9.998c-0.552 0-1-0.448-1-1s0.448-1 1-1v0h9.998c0.553 0 1 0.449 1 1zM23.998 12.001c0 0.551-0.447 0.999-1 0.999h-13.997c-0.552 0-1-0.448-1-1s0.448-1 1-1v0h13.997c0.553 0 1 0.448 1 1.001zM31.996 14c0 7.731-7.161 13.997-15.997 13.997-1.023 0-2.020-0.093-2.991-0.252l-7.007 4.252v-7.079c-3.655-2.566-5.999-6.499-5.999-10.917 0-7.731 7.164-13.998 15.998-13.998 8.836 0 15.997 6.267 15.997 13.998zM29.996 14c0-6.625-6.266-11.998-13.997-11.998s-13.997 5.372-13.997 11.998c0 4.065 2.365 7.652 5.974 9.823l-0.063 4.638 4.708-2.829c1.084 0.231 2.211 0.367 3.379 0.367 7.731 0 13.998-5.372 13.998-11.998z"></path>
</symbol>
<symbol id="icon-cofee-cup" viewBox="0 0 35 32">
<path fill="#000" style="fill: var(--color1, #000)" d="M33.486 31.090c0 0.502-0.401 0.909-0.897 0.909h-31.691c-0.496 0.001-0.897-0.407-0.897-0.908s0.401-0.91 0.897-0.91h31.691c0.496 0 0.897 0.407 0.897 0.909zM14.244 11.924c0.039-1.572 0.595-3.149 1.524-4.324 1.415-1.79 1.446-4.717 0.063-6.025-0.176-0.168-0.285-0.404-0.285-0.665 0-0.24 0.092-0.458 0.242-0.621l-0.001 0.001c0.163-0.178 0.397-0.289 0.656-0.289 0.238 0 0.453 0.093 0.613 0.245l-0-0c2.302 2.177 1.907 6.223 0.113 8.492-1.322 1.673-1.651 4.631-0.113 6.087 0.362 0.343 0.382 0.919 0.044 1.286-0.163 0.178-0.396 0.289-0.656 0.289-0.238 0-0.454-0.093-0.613-0.245l0 0c-1.067-1.009-1.631-2.511-1.588-4.23zM34.909 14.265v1.745c0 2.502-2.007 4.538-4.476 4.538h-2.004c-1.36 3.833-4.982 6.582-9.226 6.582h-4.919c-5.404 0-9.801-4.457-9.801-9.936v-9.025c0-0.503 0.401-0.91 0.897-0.91h5.756c1.169-1.801 1.116-4.456-0.182-5.684-0.176-0.168-0.285-0.404-0.285-0.665 0-0.24 0.092-0.458 0.242-0.621l-0.001 0.001c0.163-0.178 0.396-0.289 0.656-0.289 0.238 0 0.454 0.093 0.614 0.246l-0-0c2.301 2.177 1.906 6.223 0.113 8.492-1.323 1.673-1.652 4.632-0.113 6.087 0.362 0.343 0.382 0.919 0.044 1.286-0.163 0.178-0.397 0.289-0.656 0.289-0.238 0-0.453-0.093-0.613-0.245l0 0c-1.068-1.009-1.631-2.512-1.588-4.231 0.025-0.98 0.249-1.961 0.641-2.846h-3.732v8.116c0 4.475 3.592 8.116 8.007 8.116h4.921c4.415 0 8.006-3.641 8.006-8.116v-8.116h-6.748c-0.496 0-0.897-0.407-0.897-0.909s0.401-0.91 0.897-0.91h7.645c0.496 0 0.897 0.407 0.897 0.909v1.559h1.429c2.468 0 4.476 2.036 4.476 4.538zM33.114 14.265c0-1.498-1.203-2.718-2.681-2.718h-1.43v7.181h1.429c1.478 0 2.681-1.219 2.681-2.718z"></path>
<path fill="#c7b299" style="fill: var(--color2, #c7b299)" d="M33.486 31.090c0 0.502-0.401 0.909-0.897 0.909h-31.691c-0.496 0.001-0.897-0.407-0.897-0.908s0.401-0.91 0.897-0.91h31.691c0.496 0 0.897 0.407 0.897 0.909zM14.244 11.924c0.039-1.572 0.595-3.149 1.524-4.324 1.415-1.79 1.446-4.717 0.063-6.025-0.176-0.168-0.285-0.404-0.285-0.665 0-0.24 0.092-0.458 0.242-0.621l-0.001 0.001c0.163-0.178 0.397-0.289 0.656-0.289 0.238 0 0.453 0.093 0.613 0.245l-0-0c2.302 2.177 1.907 6.223 0.113 8.492-1.322 1.673-1.651 4.631-0.113 6.087 0.362 0.343 0.382 0.919 0.044 1.286-0.163 0.178-0.396 0.289-0.656 0.289-0.238 0-0.454-0.093-0.613-0.245l0 0c-1.067-1.009-1.631-2.511-1.588-4.23zM34.909 14.265v1.745c0 2.502-2.007 4.538-4.476 4.538h-2.004c-1.36 3.833-4.982 6.582-9.226 6.582h-4.919c-5.404 0-9.801-4.457-9.801-9.936v-9.025c0-0.503 0.401-0.91 0.897-0.91h5.756c1.169-1.801 1.116-4.456-0.182-5.684-0.176-0.168-0.285-0.404-0.285-0.665 0-0.24 0.092-0.458 0.242-0.621l-0.001 0.001c0.163-0.178 0.396-0.289 0.656-0.289 0.238 0 0.454 0.093 0.614 0.246l-0-0c2.301 2.177 1.906 6.223 0.113 8.492-1.323 1.673-1.652 4.632-0.113 6.087 0.362 0.343 0.382 0.919 0.044 1.286-0.163 0.178-0.397 0.289-0.656 0.289-0.238 0-0.453-0.093-0.613-0.245l0 0c-1.068-1.009-1.631-2.512-1.588-4.231 0.025-0.98 0.249-1.961 0.641-2.846h-3.732v8.116c0 4.475 3.592 8.116 8.007 8.116h4.921c4.415 0 8.006-3.641 8.006-8.116v-8.116h-6.748c-0.496 0-0.897-0.407-0.897-0.909s0.401-0.91 0.897-0.91h7.645c0.496 0 0.897 0.407 0.897 0.909v1.559h1.429c2.468 0 4.476 2.036 4.476 4.538zM33.114 14.265c0-1.498-1.203-2.718-2.681-2.718h-1.43v7.181h1.429c1.478 0 2.681-1.219 2.681-2.718z"></path>
</symbol>
<symbol id="icon-clients" viewBox="0 0 32 32">
<path fill="#000" style="fill: var(--color1, #000)" d="M7 12.875c-0.001-2.396 0.753-4.658 2.122-6.37 1.422-1.776 3.332-2.755 5.377-2.755 4.137 0 7.5 4.093 7.5 9.125s-3.364 9.125-7.5 9.125c-4.136 0-7.5-4.093-7.5-9.125zM8.998 12.875c0.002 3.929 2.47 7.125 5.502 7.125s5.5-3.196 5.5-7.125-2.468-7.125-5.5-7.125c-3.034 0-5.502 3.196-5.502 7.125zM29 29.202c-0.003 1.545-1.255 2.797-2.801 2.798h-23.401c-1.545-0.002-2.796-1.253-2.799-2.798v-0c0-4.523 3.678-8.202 8.199-8.202 0.552 0 1 0.448 1 1s-0.448 1-1 1v0c-3.418 0-6.199 2.782-6.199 6.202 0.001 0.44 0.358 0.797 0.798 0.798h23.401c0.441 0 0.801-0.36 0.801-0.798 0-3.42-2.783-6.202-6.201-6.202-0.552 0-1-0.448-1-1s0.448-1 1-1v0c4.521 0 8.201 3.68 8.201 8.202zM13.862 2.287c-0.087-0.146-0.139-0.321-0.139-0.509 0-0.365 0.195-0.684 0.486-0.858l0.005-0.003c0.938-0.571 2.072-0.911 3.284-0.917h0.002c4.137 0 7.5 4.094 7.5 9.125 0 0.858-0.097 1.703-0.286 2.514-0.108 0.445-0.503 0.77-0.974 0.77-0.081 0-0.16-0.010-0.235-0.028l0.007 0.001c-0.445-0.107-0.771-0.501-0.771-0.972 0-0.081 0.010-0.16 0.028-0.236l-0.001 0.007c0.155-0.661 0.233-1.352 0.233-2.057 0-3.928-2.468-7.124-5.5-7.124-0.79 0-1.553 0.214-2.269 0.639-0.473 0.281-1.087 0.123-1.369-0.353zM32 25.265c0 0.399-0.081 0.781-0.24 1.14-0.161 0.353-0.51 0.593-0.915 0.593-0.147 0-0.286-0.032-0.412-0.088l0.006 0.003c-0.353-0.16-0.593-0.509-0.593-0.915 0-0.147 0.032-0.286 0.088-0.412l-0.003 0.006c0.043-0.093 0.068-0.202 0.068-0.317 0-0.003-0-0.006-0-0.009v0c0-3.418-2.582-6.268-6-6.268-0.552 0-1-0.448-1-1s0.448-1 1-1v0c4.521 0 8 3.747 8 8.265z"></path>
<path fill="#c7b299" style="fill: var(--color2, #c7b299)" d="M7 12.875c-0.001-2.396 0.753-4.658 2.122-6.37 1.422-1.776 3.332-2.755 5.377-2.755 4.137 0 7.5 4.093 7.5 9.125s-3.364 9.125-7.5 9.125c-4.136 0-7.5-4.093-7.5-9.125zM8.998 12.875c0.002 3.929 2.47 7.125 5.502 7.125s5.5-3.196 5.5-7.125-2.468-7.125-5.5-7.125c-3.034 0-5.502 3.196-5.502 7.125zM29 29.202c-0.003 1.545-1.255 2.797-2.801 2.798h-23.401c-1.545-0.002-2.796-1.253-2.799-2.798v-0c0-4.523 3.678-8.202 8.199-8.202 0.552 0 1 0.448 1 1s-0.448 1-1 1v0c-3.418 0-6.199 2.782-6.199 6.202 0.001 0.44 0.358 0.797 0.798 0.798h23.401c0.441 0 0.801-0.36 0.801-0.798 0-3.42-2.783-6.202-6.201-6.202-0.552 0-1-0.448-1-1s0.448-1 1-1v0c4.521 0 8.201 3.68 8.201 8.202zM13.862 2.287c-0.087-0.146-0.139-0.321-0.139-0.509 0-0.365 0.195-0.684 0.486-0.858l0.005-0.003c0.938-0.571 2.072-0.911 3.284-0.917h0.002c4.137 0 7.5 4.094 7.5 9.125 0 0.858-0.097 1.703-0.286 2.514-0.108 0.445-0.503 0.77-0.974 0.77-0.081 0-0.16-0.010-0.235-0.028l0.007 0.001c-0.445-0.107-0.771-0.501-0.771-0.972 0-0.081 0.010-0.16 0.028-0.236l-0.001 0.007c0.155-0.661 0.233-1.352 0.233-2.057 0-3.928-2.468-7.124-5.5-7.124-0.79 0-1.553 0.214-2.269 0.639-0.473 0.281-1.087 0.123-1.369-0.353zM32 25.265c0 0.399-0.081 0.781-0.24 1.14-0.161 0.353-0.51 0.593-0.915 0.593-0.147 0-0.286-0.032-0.412-0.088l0.006 0.003c-0.353-0.16-0.593-0.509-0.593-0.915 0-0.147 0.032-0.286 0.088-0.412l-0.003 0.006c0.043-0.093 0.068-0.202 0.068-0.317 0-0.003-0-0.006-0-0.009v0c0-3.418-2.582-6.268-6-6.268-0.552 0-1-0.448-1-1s0.448-1 1-1v0c4.521 0 8 3.747 8 8.265z"></path>
</symbol>
<symbol id="icon-icon-play" viewBox="0 0 32 32">
<path fill="#000" style="fill: var(--color1, #000)" d="M13.684 23.689c-0.52 0-0.942-0.422-0.942-0.942v0-13.497c0-0.52 0.422-0.942 0.942-0.942 0.23 0 0.441 0.082 0.604 0.22l-0.001-0.001 8.098 6.748c0.208 0.174 0.339 0.433 0.339 0.723s-0.131 0.55-0.338 0.722l-0.001 0.001-8.098 6.749c-0.162 0.136-0.373 0.218-0.603 0.218-0 0-0.001 0-0.001 0h0zM14.626 11.261v9.477l5.685-4.739zM15.971 31.999c-0.006 0-0.012 0-0.019 0-2.867 0-5.556-0.758-7.879-2.085l0.078 0.041c-0.297-0.162-0.495-0.473-0.495-0.829 0-0.52 0.422-0.942 0.942-0.942 0.176 0 0.34 0.048 0.481 0.132l-0.004-0.002c5.494 3.093 12.448 2.136 16.912-2.328 5.507-5.507 5.507-14.468 0-19.975s-14.468-5.508-19.975 0c-5.507 5.507-5.507 14.468 0 19.975 0.17 0.17 0.276 0.406 0.276 0.666 0 0.52-0.422 0.942-0.942 0.942-0.26 0-0.495-0.105-0.666-0.276v0c-6.241-6.242-6.241-16.397 0-22.639s16.396-6.241 22.639 0c6.241 6.242 6.241 16.397 0 22.639-3.075 3.074-7.192 4.682-11.347 4.682z"></path>
<path fill="#fff" style="fill: var(--color4, #fff)" d="M13.684 23.689c-0.52 0-0.942-0.422-0.942-0.942v0-13.497c0-0.52 0.422-0.942 0.942-0.942 0.23 0 0.441 0.082 0.604 0.22l-0.001-0.001 8.098 6.748c0.208 0.174 0.339 0.433 0.339 0.723s-0.131 0.55-0.338 0.722l-0.001 0.001-8.098 6.749c-0.162 0.136-0.373 0.218-0.603 0.218-0 0-0.001 0-0.001 0h0zM14.626 11.261v9.477l5.685-4.739zM15.971 31.999c-0.006 0-0.012 0-0.019 0-2.867 0-5.556-0.758-7.879-2.085l0.078 0.041c-0.297-0.162-0.495-0.473-0.495-0.829 0-0.52 0.422-0.942 0.942-0.942 0.176 0 0.34 0.048 0.481 0.132l-0.004-0.002c5.494 3.093 12.448 2.136 16.912-2.328 5.507-5.507 5.507-14.468 0-19.975s-14.468-5.508-19.975 0c-5.507 5.507-5.507 14.468 0 19.975 0.17 0.17 0.276 0.406 0.276 0.666 0 0.52-0.422 0.942-0.942 0.942-0.26 0-0.495-0.105-0.666-0.276v0c-6.241-6.242-6.241-16.397 0-22.639s16.396-6.241 22.639 0c6.241 6.242 6.241 16.397 0 22.639-3.075 3.074-7.192 4.682-11.347 4.682z"></path>
</symbol>
<symbol id="icon-lupa" viewBox="0 0 33 32">
<path fill="#000" style="fill: var(--color1, #000)" d="M22.294 10.044c0.407 0.824 0.060 1.818-0.777 2.22-0.237 0.111-0.488 0.166-0.737 0.166-0.623 0-1.221-0.342-1.513-0.932-0.887-1.766-2.684-2.957-4.759-2.957-0.014 0-0.027 0-0.040 0h0.002c-0.929 0-1.683-0.741-1.683-1.659 0-0.914 0.754-1.658 1.683-1.658 3.354 0 6.354 1.847 7.825 4.819zM32.585 30.94c-0.38 0.375-0.903 0.607-1.48 0.607-0.004 0-0.007 0-0.011-0h0.001c-0.002 0-0.005 0-0.007 0-0.577 0-1.101-0.232-1.482-0.607l0 0-5.549-5.468c-2.393 1.85-5.436 2.966-8.739 2.966-0.004 0-0.008 0-0.011 0h0.001c-7.892 0.001-14.313-6.324-14.313-14.099s6.42-14.1 14.314-14.1 14.31 6.326 14.31 14.1c0 3.034-0.986 5.839-2.647 8.142l5.61 5.527c0.38 0.373 0.616 0.892 0.616 1.466s-0.236 1.093-0.616 1.465l-0 0zM15.309 25.123c2.693 0 5.158-0.968 7.067-2.564 0.589-0.492 1.119-1.048 1.591-1.649 1.423-1.788 2.284-4.079 2.286-6.571v-0c0-5.946-4.91-10.783-10.944-10.783-6.035 0-10.945 4.838-10.945 10.783 0 5.946 4.91 10.783 10.944 10.784z"></path>
<path fill="#fff" style="fill: var(--color4, #fff)" d="M22.294 10.044c0.407 0.824 0.060 1.818-0.777 2.22-0.237 0.111-0.488 0.166-0.737 0.166-0.623 0-1.221-0.342-1.513-0.932-0.887-1.766-2.684-2.957-4.759-2.957-0.014 0-0.027 0-0.040 0h0.002c-0.929 0-1.683-0.741-1.683-1.659 0-0.914 0.754-1.658 1.683-1.658 3.354 0 6.354 1.847 7.825 4.819zM32.585 30.94c-0.38 0.375-0.903 0.607-1.48 0.607-0.004 0-0.007 0-0.011-0h0.001c-0.002 0-0.005 0-0.007 0-0.577 0-1.101-0.232-1.482-0.607l0 0-5.549-5.468c-2.393 1.85-5.436 2.966-8.739 2.966-0.004 0-0.008 0-0.011 0h0.001c-7.892 0.001-14.313-6.324-14.313-14.099s6.42-14.1 14.314-14.1 14.31 6.326 14.31 14.1c0 3.034-0.986 5.839-2.647 8.142l5.61 5.527c0.38 0.373 0.616 0.892 0.616 1.466s-0.236 1.093-0.616 1.465l-0 0zM15.309 25.123c2.693 0 5.158-0.968 7.067-2.564 0.589-0.492 1.119-1.048 1.591-1.649 1.423-1.788 2.284-4.079 2.286-6.571v-0c0-5.946-4.91-10.783-10.944-10.783-6.035 0-10.945 4.838-10.945 10.783 0 5.946 4.91 10.783 10.944 10.784z"></path>
</symbol>
<symbol id="icon-link" viewBox="0 0 32 32">
<path fill="#000" style="fill: var(--color1, #000)" d="M28.923 13.836l-6.294 6.298c-0.188 0.209-0.418 0.399-0.629 0.566-1.295 1.028-2.952 1.649-4.755 1.649-1.014 0-1.983-0.197-2.869-0.554l0.052 0.018c-0.999-0.397-1.851-0.967-2.56-1.68l-0-0 3.252-3.254c0.545 0.545 1.298 0.882 2.129 0.882s1.584-0.337 2.129-0.882l6.293-6.295c0.545-0.545 0.883-1.298 0.883-2.13 0-1.663-1.349-3.012-3.012-3.012-0.831 0-1.584 0.337-2.129 0.882v0l-3.020 3.023c-1.069-0.505-2.322-0.8-3.643-0.8-0.854 0-1.679 0.123-2.459 0.352l0.062-0.015 5.809-5.813c2.959-2.96 7.804-2.96 10.762 0 2.978 2.978 2.978 7.807 0 10.767zM19.503 23.199l-5.684 5.75c-2.958 2.961-7.803 2.961-10.762 0-2.958-2.959-2.958-7.807 0-10.766l6.293-6.299c0.084-0.082 0.19-0.188 0.294-0.272 1.343-1.208 3.129-1.947 5.087-1.947 1.016 0 1.986 0.199 2.872 0.56l-0.051-0.018c0.923 0.357 1.803 0.923 2.559 1.678l-3.252 3.255c-0.545-0.545-1.298-0.882-2.129-0.882s-1.584 0.337-2.129 0.882l-6.293 6.295c-0.546 0.545-0.883 1.299-0.883 2.131 0 1.664 1.349 3.012 3.013 3.012 0.831 0 1.584-0.337 2.129-0.881l-0 0 2.895-2.898c2.475 0.988 3.147 1.071 6.041 0.4z"></path>
<path fill="#c7b299" style="fill: var(--color2, #c7b299)" d="M28.923 13.836l-6.294 6.298c-0.188 0.209-0.418 0.399-0.629 0.566-1.295 1.028-2.952 1.649-4.755 1.649-1.014 0-1.983-0.197-2.869-0.554l0.052 0.018c-0.999-0.397-1.851-0.967-2.56-1.68l-0-0 3.252-3.254c0.545 0.545 1.298 0.882 2.129 0.882s1.584-0.337 2.129-0.882l6.293-6.295c0.545-0.545 0.883-1.298 0.883-2.13 0-1.663-1.349-3.012-3.012-3.012-0.831 0-1.584 0.337-2.129 0.882v0l-3.020 3.023c-1.069-0.505-2.322-0.8-3.643-0.8-0.854 0-1.679 0.123-2.459 0.352l0.062-0.015 5.809-5.813c2.959-2.96 7.804-2.96 10.762 0 2.978 2.978 2.978 7.807 0 10.767zM19.503 23.199l-5.684 5.75c-2.958 2.961-7.803 2.961-10.762 0-2.958-2.959-2.958-7.807 0-10.766l6.293-6.299c0.084-0.082 0.19-0.188 0.294-0.272 1.343-1.208 3.129-1.947 5.087-1.947 1.016 0 1.986 0.199 2.872 0.56l-0.051-0.018c0.923 0.357 1.803 0.923 2.559 1.678l-3.252 3.255c-0.545-0.545-1.298-0.882-2.129-0.882s-1.584 0.337-2.129 0.882l-6.293 6.295c-0.546 0.545-0.883 1.299-0.883 2.131 0 1.664 1.349 3.012 3.013 3.012 0.831 0 1.584-0.337 2.129-0.881l-0 0 2.895-2.898c2.475 0.988 3.147 1.071 6.041 0.4z"></path>
</symbol>
<symbol id="icon-bag" viewBox="0 0 46 32">
<path  d="M0.656 26.797v-19.701c0-1.212 0.982-2.206 2.185-2.204h9.614v-1.285c0-0.884 0.34-1.709 0.962-2.336 0.588-0.6 1.407-0.972 2.312-0.972 0.001 0 0.003 0 0.004 0h5.591c1.804 0 3.275 1.482 3.275 3.309v1.282h9.614c1.2 0 2.185 0.994 2.185 2.206v1.47h-23.294c-2.015 0-4.213 1.378-5.104 3.207zM14.64 4.891h7.775v-1.284c0-0.612-0.489-1.105-1.092-1.105h-5.591c-0.291 0-0.565 0.116-0.771 0.327-0.198 0.2-0.321 0.474-0.322 0.778v0zM37.263 30.011c-0.529 1.086-1.948 1.975-3.149 1.975h-31.376c-1.2 0-1.749-0.891-1.217-1.974l8.437-17.264c0.527-1.087 1.946-1.979 3.146-1.979h31.376c1.204 0 1.75 0.892 1.219 1.979z"></path>
<path  d="M0.656 26.797v-19.701c0-1.212 0.982-2.206 2.185-2.204h9.614v-1.285c0-0.884 0.34-1.709 0.962-2.336 0.588-0.6 1.407-0.972 2.312-0.972 0.001 0 0.003 0 0.004 0h5.591c1.804 0 3.275 1.482 3.275 3.309v1.282h9.614c1.2 0 2.185 0.994 2.185 2.206v1.47h-23.294c-2.015 0-4.213 1.378-5.104 3.207zM14.64 4.891h7.775v-1.284c0-0.612-0.489-1.105-1.092-1.105h-5.591c-0.291 0-0.565 0.116-0.771 0.327-0.198 0.2-0.321 0.474-0.322 0.778v0zM37.263 30.011c-0.529 1.086-1.948 1.975-3.149 1.975h-31.376c-1.2 0-1.749-0.891-1.217-1.974l8.437-17.264c0.527-1.087 1.946-1.979 3.146-1.979h31.376c1.204 0 1.75 0.892 1.219 1.979z"></path>
</symbol>
<symbol id="icon-tools" viewBox="0 0 32 32">
<path  d="M30.052 18.698c-1.047 0.373-2.063 1.281-2.359 1.995s-0.217 2.073 0.26 3.076c0.477 1.003 0.188 2.492-0.644 3.325-0.833 0.834-2.323 1.123-3.326 0.645s-2.365-0.556-3.079-0.259c-0.713 0.298-1.62 1.315-1.992 2.361-0.372 1.044-1.63 1.892-2.808 1.892s-2.436-0.847-2.809-1.891c-0.372-1.047-1.279-2.063-1.993-2.359s-2.074-0.22-3.078 0.257c-1.004 0.478-2.492 0.189-3.326-0.645-0.833-0.833-1.121-2.322-0.644-3.325s0.555-2.363 0.258-3.076c-0.297-0.712-1.309-1.622-2.356-1.994s-1.895-1.63-1.895-2.808c0-1.178 0.848-2.436 1.895-2.805 1.047-0.371 2.058-1.281 2.355-1.995 0.296-0.716 0.22-2.075-0.257-3.079s-0.189-2.492 0.644-3.327c0.833-0.833 2.324-1.121 3.326-0.644 1.004 0.477 2.364 0.556 3.077 0.26s1.622-1.311 1.993-2.358c0.372-1.047 1.63-1.895 2.809-1.895s2.436 0.849 2.808 1.895c0.372 1.047 1.28 2.063 1.993 2.358 0.714 0.296 2.074 0.218 3.078-0.26s2.492-0.19 3.326 0.644c0.833 0.835 1.121 2.324 0.644 3.327s-0.553 2.365-0.258 3.079c0.295 0.716 1.309 1.623 2.356 1.994 1.047 0.369 1.895 1.627 1.895 2.805s-0.848 2.436-1.895 2.807zM21.911 15.898c0-3.214-2.599-5.814-5.807-5.814-0.001 0-0.003 0-0.004 0-3.208 0-5.809 2.601-5.809 5.809 0 0.002 0 0.003 0 0.005v-0c0 3.207 2.6 5.806 5.807 5.806 0.003 0 0.005 0 0.008 0h-0c0.001 0 0.001 0 0.002 0 3.206 0 5.804-2.599 5.804-5.804 0-0.001 0-0.001 0-0.002v0z"></path>
<path  d="M30.052 18.698c-1.047 0.373-2.063 1.281-2.359 1.995s-0.217 2.073 0.26 3.076c0.477 1.003 0.188 2.492-0.644 3.325-0.833 0.834-2.323 1.123-3.326 0.645s-2.365-0.556-3.079-0.259c-0.713 0.298-1.62 1.315-1.992 2.361-0.372 1.044-1.63 1.892-2.808 1.892s-2.436-0.847-2.809-1.891c-0.372-1.047-1.279-2.063-1.993-2.359s-2.074-0.22-3.078 0.257c-1.004 0.478-2.492 0.189-3.326-0.645-0.833-0.833-1.121-2.322-0.644-3.325s0.555-2.363 0.258-3.076c-0.297-0.712-1.309-1.622-2.356-1.994s-1.895-1.63-1.895-2.808c0-1.178 0.848-2.436 1.895-2.805 1.047-0.371 2.058-1.281 2.355-1.995 0.296-0.716 0.22-2.075-0.257-3.079s-0.189-2.492 0.644-3.327c0.833-0.833 2.324-1.121 3.326-0.644 1.004 0.477 2.364 0.556 3.077 0.26s1.622-1.311 1.993-2.358c0.372-1.047 1.63-1.895 2.809-1.895s2.436 0.849 2.808 1.895c0.372 1.047 1.28 2.063 1.993 2.358 0.714 0.296 2.074 0.218 3.078-0.26s2.492-0.19 3.326 0.644c0.833 0.835 1.121 2.324 0.644 3.327s-0.553 2.365-0.258 3.079c0.295 0.716 1.309 1.623 2.356 1.994 1.047 0.369 1.895 1.627 1.895 2.805s-0.848 2.436-1.895 2.807zM21.911 15.898c0-3.214-2.599-5.814-5.807-5.814-0.001 0-0.003 0-0.004 0-3.208 0-5.809 2.601-5.809 5.809 0 0.002 0 0.003 0 0.005v-0c0 3.207 2.6 5.806 5.807 5.806 0.003 0 0.005 0 0.008 0h-0c0.001 0 0.001 0 0.002 0 3.206 0 5.804-2.599 5.804-5.804 0-0.001 0-0.001 0-0.002v0z"></path>
</symbol>
<symbol id="icon-data" viewBox="0 0 35 32">
<path d="M34.63 9.333l-17.149 9.249-17.15-9.249 17.149-9.248zM31.442 14.038l3.188 1.719-17.149 9.245-17.15-9.245 3.188-1.72 13.962 7.528zM31.442 20.458l3.188 1.718-17.149 9.25-17.15-9.25 3.188-1.718 13.962 7.53z"></path>
<path   d="M34.63 9.333l-17.149 9.249-17.15-9.249 17.149-9.248zM31.442 14.038l3.188 1.719-17.149 9.245-17.15-9.245 3.188-1.72 13.962 7.528zM31.442 20.458l3.188 1.718-17.149 9.25-17.15-9.25 3.188-1.718 13.962 7.53z"></path>
</symbol>
<symbol id="icon-crayon" viewBox="0 0 32 32">
<path  d="M31.13 12.876l-9.317 9.318-21.465 9.455 9.454-21.467 9.318-9.315c0.188-0.188 0.447-0.304 0.734-0.304 0.573 0 1.038 0.465 1.038 1.038 0 0.287-0.116 0.546-0.304 0.734l-9.041 9.042-5.601 12.712 1.959 1.959 12.713-5.599 9.043-9.041c0.188-0.188 0.447-0.305 0.734-0.305s0.546 0.117 0.734 0.305l0 0c0.406 0.405 0.406 1.065 0 1.467zM17.956 17.121l8.707-8.707c0.188-0.189 0.447-0.306 0.735-0.306s0.547 0.117 0.735 0.306l0 0c0.407 0.405 0.407 1.061 0 1.469l-8.707 8.707c-0.188 0.188-0.448 0.303-0.735 0.303s-0.546-0.116-0.735-0.304l0 0c-0.188-0.188-0.304-0.448-0.304-0.735s0.116-0.547 0.304-0.735l-0 0zM15.683 14.847l8.707-8.707c0.188-0.188 0.448-0.304 0.735-0.304 0.574 0 1.039 0.465 1.039 1.039 0 0.287-0.116 0.547-0.304 0.735v0l-8.707 8.707c-0.185 0.173-0.434 0.279-0.709 0.279-0.574 0-1.040-0.465-1.040-1.040 0-0.274 0.106-0.523 0.279-0.709l-0.001 0.001zM13.411 12.573l8.707-8.705c0.188-0.189 0.448-0.306 0.735-0.306s0.547 0.117 0.735 0.306l0 0c0.406 0.405 0.406 1.061 0 1.469l-8.707 8.705c-0.202 0.202-0.47 0.304-0.735 0.304s-0.532-0.101-0.735-0.304c-0.188-0.188-0.304-0.448-0.304-0.734s0.116-0.546 0.304-0.734v0z"></path>
<path  d="M31.13 12.876l-9.317 9.318-21.465 9.455 9.454-21.467 9.318-9.315c0.188-0.188 0.447-0.304 0.734-0.304 0.573 0 1.038 0.465 1.038 1.038 0 0.287-0.116 0.546-0.304 0.734l-9.041 9.042-5.601 12.712 1.959 1.959 12.713-5.599 9.043-9.041c0.188-0.188 0.447-0.305 0.734-0.305s0.546 0.117 0.734 0.305l0 0c0.406 0.405 0.406 1.065 0 1.467zM17.956 17.121l8.707-8.707c0.188-0.189 0.447-0.306 0.735-0.306s0.547 0.117 0.735 0.306l0 0c0.407 0.405 0.407 1.061 0 1.469l-8.707 8.707c-0.188 0.188-0.448 0.303-0.735 0.303s-0.546-0.116-0.735-0.304l0 0c-0.188-0.188-0.304-0.448-0.304-0.735s0.116-0.547 0.304-0.735l-0 0zM15.683 14.847l8.707-8.707c0.188-0.188 0.448-0.304 0.735-0.304 0.574 0 1.039 0.465 1.039 1.039 0 0.287-0.116 0.547-0.304 0.735v0l-8.707 8.707c-0.185 0.173-0.434 0.279-0.709 0.279-0.574 0-1.040-0.465-1.040-1.040 0-0.274 0.106-0.523 0.279-0.709l-0.001 0.001zM13.411 12.573l8.707-8.705c0.188-0.189 0.448-0.306 0.735-0.306s0.547 0.117 0.735 0.306l0 0c0.406 0.405 0.406 1.061 0 1.469l-8.707 8.705c-0.202 0.202-0.47 0.304-0.735 0.304s-0.532-0.101-0.735-0.304c-0.188-0.188-0.304-0.448-0.304-0.734s0.116-0.546 0.304-0.734v0z"></path>
</symbol>
<symbol id="icon-point-not-chosen" viewBox="0 0 32 32">
<path fill="#fff" style="fill: var(--color1, #fff)" opacity="0.5" d="M16 1.373c8.073 0 14.618 6.545 14.618 14.618s-6.545 14.618-14.618 14.618v0c-8.073 0-14.618-6.545-14.618-14.618s6.545-14.618 14.618-14.618v0z"></path>
</symbol>
<symbol id="icon-point-chosen" viewBox="0 0 32 32">
<path fill="#fff" style="fill: var(--color4, #fff)" opacity="0.5" d="M16 1.373c8.073 0 14.618 6.545 14.618 14.618s-6.545 14.618-14.618 14.618v0c-8.073 0-14.618-6.545-14.618-14.618s6.545-14.618 14.618-14.618v0z"></path>
</symbol>
<symbol id="icon-arrow-right-header" viewBox="0 0 18 32">
<path fill="#000" style="fill: var(--color1, #000)" d="M0.865 31.991l16.667-15.992-16.667-15.991-0.864 0.878 15.75 15.113-15.75 15.114z"></path>
<path fill="#d3c1ad" style="fill: var(--color6, #d3c1ad)" d="M0.865 31.991l16.667-15.992-16.667-15.991-0.864 0.878 15.75 15.113-15.75 15.114z"></path>
</symbol>
<symbol id="icon-arrow-left-header" viewBox="0 0 18 32">
<path fill="#000" style="fill: var(--color1, #000)" opacity="0.5" d="M16.669 31.991l-16.667-15.993 16.667-15.991 0.863 0.878-15.75 15.113 15.75 15.114z"></path>
<path fill="#fff" style="fill: var(--color4, #fff)" opacity="0.5" d="M16.669 31.991l-16.667-15.993 16.667-15.991 0.863 0.878-15.75 15.113 15.75 15.114z"></path>
</symbol>
<symbol id="icon-search-header" viewBox="0 0 32 32">
<path fill="#000" style="fill: var(--color1, #000)" d="M31.681 31.684c-0.189 0.185-0.447 0.299-0.732 0.299s-0.543-0.114-0.732-0.299l0 0-8.289-8.16c-2.294 1.844-5.241 2.96-8.45 2.96-0.007 0-0.015 0-0.022-0h0.001c-7.431-0.001-13.456-5.931-13.456-13.247-0.001-7.313 6.024-13.24 13.456-13.24 7.433 0 13.457 5.927 13.459 13.24 0 3.42-1.329 6.529-3.491 8.877l8.257 8.127c0.187 0.184 0.303 0.439 0.303 0.721s-0.116 0.538-0.303 0.721l-0 0zM24.844 13.24c0-6.188-5.097-11.205-11.387-11.205-6.288 0-11.387 5.017-11.387 11.205 0 6.191 5.099 11.207 11.387 11.207 6.289 0 11.387-5.016 11.387-11.207z"></path>
<path fill="#fff" style="fill: var(--color4, #fff)" d="M31.681 31.684c-0.189 0.185-0.447 0.299-0.732 0.299s-0.543-0.114-0.732-0.299l0 0-8.289-8.16c-2.294 1.844-5.241 2.96-8.45 2.96-0.007 0-0.015 0-0.022-0h0.001c-7.431-0.001-13.456-5.931-13.456-13.247-0.001-7.313 6.024-13.24 13.456-13.24 7.433 0 13.457 5.927 13.459 13.24 0 3.42-1.329 6.529-3.491 8.877l8.257 8.127c0.187 0.184 0.303 0.439 0.303 0.721s-0.116 0.538-0.303 0.721l-0 0zM24.844 13.24c0-6.188-5.097-11.205-11.387-11.205-6.288 0-11.387 5.017-11.387 11.205 0 6.191 5.099 11.207 11.387 11.207 6.289 0 11.387-5.016 11.387-11.207z"></path>
</symbol>
<symbol id="icon-bag-header" viewBox="0 0 24 32">
<path fill="#000" style="fill: var(--color1, #000)" d="M23.992 7.996v19.997c0 2.209-1.79 3.999-3.999 4h-15.991c-2.209-0.001-3.999-1.791-3.999-4v0-19.997c0.002-2.207 1.791-3.996 3.999-3.996h1.997c0-2.209 2.684-4 5.997-4 3.312 0 5.996 1.791 5.996 4h2c2.207 0.001 3.997 1.79 3.997 3.997v0zM8 4h7.996c0-1.383-1.789-2-3.997-2s-3.999 0.617-3.999 2zM21.993 25.995h-19.991v2c0 1.104 0.896 2 2 2h15.991c1.105 0 2-0.895 2-2v0zM21.993 7.997c0-1.105-0.895-2-2-2v0h-1.999v6h-1.999v-6h-7.996v6h-1.999v-6h-2c-1.104 0.001-1.999 0.896-1.999 2v0 15.997h19.991z"></path>
<path fill="#fff" style="fill: var(--color4, #fff)" d="M23.992 7.996v19.997c0 2.209-1.79 3.999-3.999 4h-15.991c-2.209-0.001-3.999-1.791-3.999-4v0-19.997c0.002-2.207 1.791-3.996 3.999-3.996h1.997c0-2.209 2.684-4 5.997-4 3.312 0 5.996 1.791 5.996 4h2c2.207 0.001 3.997 1.79 3.997 3.997v0zM8 4h7.996c0-1.383-1.789-2-3.997-2s-3.999 0.617-3.999 2zM21.993 25.995h-19.991v2c0 1.104 0.896 2 2 2h15.991c1.105 0 2-0.895 2-2v0zM21.993 7.997c0-1.105-0.895-2-2-2v0h-1.999v6h-1.999v-6h-7.996v6h-1.999v-6h-2c-1.104 0.001-1.999 0.896-1.999 2v0 15.997h19.991z"></path>
</symbol>
<symbol id="icon-logo-header" viewBox="0 0 37 32">
<path fill="#000" style="fill: var(--color1, #000)" d="M18.202 11.374l-3.002-5.253h6.005zM17.451 11.812h-6.005l3.002-5.252zM18.953 11.812l3.002-5.252 3.002 5.252zM24.958 12.686l-3.002 5.251-3.002-5.25zM17.451 12.686l-3.002 5.251-3.002-5.25zM10.696 13.124l3.002 5.25h-6.003zM22.707 18.374l3.001-5.25 3.002 5.25zM21.205 5.248h-6.005l3.002-5.251zM22.707 19.249h6.003l-3.002 5.25zM7.694 19.249h6.003l-3.002 5.25zM6.943 19.686l3.002 5.251h-6.004zM26.459 24.938l3.002-5.251 3.002 5.251zM32.463 25.812l-3.002 5.25-3.002-5.25zM24.958 25.812l-3.002 5.25-3.002-5.25zM3.941 25.812h6.004l-3.002 5.251zM3.19 26.251l3.002 5.251h-6.003zM18.202 26.251l3.002 5.251h-6.005zM25.709 26.251l3.002 5.251h-6.003zM36.215 31.502h-6.002l3.001-5.251z"></path>
<path fill="#fff" style="fill: var(--color4, #fff)" d="M18.202 11.374l-3.002-5.253h6.005zM17.451 11.812h-6.005l3.002-5.252zM18.953 11.812l3.002-5.252 3.002 5.252zM24.958 12.686l-3.002 5.251-3.002-5.25zM17.451 12.686l-3.002 5.251-3.002-5.25zM10.696 13.124l3.002 5.25h-6.003zM22.707 18.374l3.001-5.25 3.002 5.25zM21.205 5.248h-6.005l3.002-5.251zM22.707 19.249h6.003l-3.002 5.25zM7.694 19.249h6.003l-3.002 5.25zM6.943 19.686l3.002 5.251h-6.004zM26.459 24.938l3.002-5.251 3.002 5.251zM32.463 25.812l-3.002 5.25-3.002-5.25zM24.958 25.812l-3.002 5.25-3.002-5.25zM3.941 25.812h6.004l-3.002 5.251zM3.19 26.251l3.002 5.251h-6.003zM18.202 26.251l3.002 5.251h-6.005zM25.709 26.251l3.002 5.251h-6.003zM36.215 31.502h-6.002l3.001-5.251z"></path>
</symbol>
<symbol id="icon-arrow-right2" viewBox="0 0 32 32">
<path d="M19.414 27.414l10-10c0.781-0.781 0.781-2.047 0-2.828l-10-10c-0.781-0.781-2.047-0.781-2.828 0s-0.781 2.047 0 2.828l6.586 6.586h-19.172c-1.105 0-2 0.895-2 2s0.895 2 2 2h19.172l-6.586 6.586c-0.39 0.39-0.586 0.902-0.586 1.414s0.195 1.024 0.586 1.414c0.781 0.781 2.047 0.781 2.828 0z"></path>
</symbol>
<symbol id="icon-arrow-left2" viewBox="0 0 32 32">
<path d="M12.586 27.414l-10-10c-0.781-0.781-0.781-2.047 0-2.828l10-10c0.781-0.781 2.047-0.781 2.828 0s0.781 2.047 0 2.828l-6.586 6.586h19.172c1.105 0 2 0.895 2 2s-0.895 2-2 2h-19.172l6.586 6.586c0.39 0.39 0.586 0.902 0.586 1.414s-0.195 1.024-0.586 1.414c-0.781 0.781-2.047 0.781-2.828 0z"></path>
</symbol>
<symbol id="icon-cancel" viewBox="0 0 32 32">
<path d="M19.524 16l11.964-11.965c0.329-0.329 0.511-0.769 0.511-1.237s-0.182-0.909-0.511-1.238l-1.048-1.048c-0.33-0.33-0.769-0.511-1.238-0.511s-0.908 0.181-1.237 0.511l-11.964 11.964-11.965-11.964c-0.329-0.33-0.769-0.511-1.238-0.511s-0.908 0.181-1.237 0.511l-1.049 1.048c-0.683 0.683-0.683 1.793 0 2.475l11.965 11.965-11.965 11.964c-0.329 0.33-0.511 0.769-0.511 1.238s0.181 0.908 0.511 1.238l1.049 1.048c0.329 0.33 0.769 0.511 1.237 0.511s0.909-0.181 1.238-0.511l11.965-11.964 11.964 11.964c0.33 0.33 0.769 0.511 1.237 0.511h0.001c0.469 0 0.908-0.181 1.238-0.511l1.048-1.048c0.329-0.329 0.511-0.769 0.511-1.238s-0.182-0.908-0.511-1.238l-11.964-11.965z"></path>
</symbol>
<symbol id="icon-menu" viewBox="0 0 32 32">
<path d="M30.4 27.2h-28.8c-0.883 0-1.6 0.717-1.6 1.6s0.717 1.6 1.6 1.6h28.8c0.883 0 1.6-0.717 1.6-1.6s-0.717-1.6-1.6-1.6zM1.6 4.8h28.8c0.883 0 1.6-0.717 1.6-1.6s-0.717-1.6-1.6-1.6h-28.8c-0.883 0-1.6 0.717-1.6 1.6s0.717 1.6 1.6 1.6zM30.4 14.4h-28.8c-0.883 0-1.6 0.717-1.6 1.6s0.717 1.6 1.6 1.6h28.8c0.883 0 1.6-0.717 1.6-1.6s-0.717-1.6-1.6-1.6z"></path>
</symbol>
</defs>
</svg>
